static_grf.mot
version=1
nRows=10
nColumns 19
inDegrees=yes
endheader
time	1_ground_force_vx	1_ground_force_vy	1_ground_force_vz	1_ground_force_px	1_ground_force_py	1_ground_force_pz	1_ground_torque_x	1_ground_torque_y	1_ground_torque_z	2_ground_force_vx	2_ground_force_vy	2_ground_force_vz	2_ground_force_px	2_ground_force_py	2_ground_force_pz	2_ground_torque_x	2_ground_torque_y	2_ground_torque_z
            0.005000	            0.669798	          245.273335	          -25.042720	           -0.246437	            0.006163	           -0.392006	            0.003394	            1.242760	           -0.126887	           -2.649359	          231.002818	           27.949830	           -0.228233	            0.005739	           -0.719842	            0.009909	           -0.863972	           -0.104535
            0.005500	            0.761029	          245.274139	          -25.226371	           -0.246669	            0.006162	           -0.391577	            0.003691	            1.189509	           -0.122341	           -2.136004	          231.557131	           27.951582	           -0.228380	            0.005738	           -0.719715	            0.008459	           -0.916974	           -0.110689
            0.006000	            1.035955	          245.995255	          -25.223962	           -0.246485	            0.006161	           -0.391323	            0.005224	            1.240461	           -0.127195	           -2.325418	          232.109044	           27.906705	           -0.228222	            0.005739	           -0.719902	            0.009314	           -0.929619	           -0.111769
            0.006500	            0.898639	          245.454235	          -25.180083	           -0.247057	            0.006164	           -0.392228	            0.004698	            1.283223	           -0.131640	           -2.324027	          231.740260	           28.046175	           -0.228152	            0.005739	           -0.719884	            0.008919	           -0.889310	           -0.107628
            0.007000	            0.898768	          245.994639	          -25.086052	           -0.246498	            0.006163	           -0.391912	            0.004663	            1.276274	           -0.130152	           -2.370192	          231.555783	           28.092466	           -0.227904	            0.005741	           -0.720036	            0.009077	           -0.886734	           -0.107579
            0.007500	            0.898606	          245.634501	          -25.179310	           -0.246473	            0.006162	           -0.391748	            0.004366	            1.193454	           -0.122338	           -2.463309	          231.371943	           27.904136	           -0.228485	            0.005737	           -0.719701	            0.009196	           -0.863739	           -0.104169
            0.008000	            1.174332	          245.092774	          -24.953032	           -0.246648	            0.006164	           -0.392232	            0.006175	            1.288692	           -0.131202	           -2.228354	          231.188313	           27.997236	           -0.228283	            0.005739	           -0.719856	            0.008984	           -0.932029	           -0.112870
            0.008500	            1.036542	          245.273406	          -25.043630	           -0.246644	            0.006165	           -0.392303	            0.005606	            1.326499	           -0.135442	           -2.370938	          231.740593	           27.905410	           -0.228402	            0.005739	           -0.720045	            0.009025	           -0.882124	           -0.106222
            0.009000	            0.852730	          245.814758	          -25.178423	           -0.246463	            0.006163	           -0.391878	            0.004214	            1.214774	           -0.124427	           -2.136045	          231.557466	           27.857726	           -0.228060	            0.005740	           -0.719958	            0.008385	           -0.909016	           -0.109360
            0.009500	            1.082287	          245.814212	          -25.041425	           -0.246410	            0.006162	           -0.391772	            0.005513	            1.252091	           -0.127552	           -2.367636	          230.820027	           27.855197	           -0.228054	            0.005738	           -0.719511	            0.009139	           -0.890989	           -0.107524
